<?xml version="1.0" encoding="utf-8"?>
<!-- Generator: Adobe Illustrator 27.2.0, SVG Export Plug-In . SVG Version: 6.00 Build 0)  -->
<svg version="1.1" id="Warstwa_1" xmlns="http://www.w3.org/2000/svg" xmlns:xlink="http://www.w3.org/1999/xlink" x="0px" y="0px"
	 viewBox="0 0 150 25" style="enable-background:new 0 0 150 25;" xml:space="preserve">
<style type="text/css">
	.st0{fill:#FFFFFF;}
	.st1{fill:#00FFFF;}
</style>
<g>
	<path class="st0" d="M24.3,0.9v20.6h-5.7V10.1l-3.9,11.4H9.9L6,10v11.5H0.3V0.9h6.9l5.2,13.4l5.1-13.4H24.3z"/>
	<path class="st0" d="M32.3,20.3c-1.6-0.9-2.9-2.2-3.8-3.8C27.5,15,27,13.2,27,11.1c0-2,0.5-3.8,1.4-5.4c0.9-1.6,2.2-2.9,3.8-3.8
		c1.6-0.9,3.4-1.3,5.3-1.3c1.9,0,3.7,0.4,5.3,1.3c1.6,0.9,2.9,2.1,3.8,3.8c0.9,1.6,1.4,3.4,1.4,5.4c0,2-0.5,3.8-1.4,5.4
		c-0.9,1.6-2.2,2.9-3.8,3.8c-1.6,0.9-3.4,1.4-5.3,1.4C35.7,21.7,33.9,21.3,32.3,20.3z M41.1,15c0.8-1,1.3-2.2,1.3-3.8
		c0-1.6-0.4-2.9-1.3-3.9s-2-1.4-3.5-1.4c-1.5,0-2.6,0.5-3.5,1.4c-0.8,0.9-1.3,2.2-1.3,3.9c0,1.6,0.4,2.9,1.3,3.8
		c0.8,0.9,2,1.4,3.5,1.4C39.1,16.4,40.2,15.9,41.1,15z"/>
	<path class="st0" d="M69.8,0.9l-7.1,20.6h-7.3L48.2,0.9h6.1L59,15.8l4.6-14.9H69.8z"/>
	<path class="st0" d="M77.2,0.9v20.6h-5.7V0.9H77.2z"/>
	<path class="st0" d="M86.6,5.5v3.4h6.6v4.4h-6.6v3.7H94v4.6H80.8V0.9H94v4.6H86.6z"/>
	<path class="st1" d="M111.2,22.5v1.9H96.4v-1.9H111.2z"/>
	<path class="st0" d="M127.4,2.3c1.6,0.8,2.9,2,3.7,3.5c0.9,1.5,1.3,3.4,1.3,5.5c0,2.1-0.4,3.9-1.3,5.4c-0.9,1.5-2.1,2.7-3.7,3.5
		c-1.6,0.8-3.6,1.2-5.8,1.2h-6V1.1h6C123.9,1.1,125.8,1.5,127.4,2.3z M128.1,17.6c1.5-1.5,2.2-3.6,2.2-6.2c0-2.7-0.7-4.8-2.2-6.3
		c-1.5-1.5-3.7-2.3-6.5-2.3h-4v17h4C124.4,19.8,126.6,19.1,128.1,17.6z"/>
	<path class="st0" d="M148.5,12.7c0.8,1,1.2,2.1,1.2,3.3c0,1-0.3,2-0.8,2.8c-0.5,0.8-1.3,1.5-2.3,2c-1,0.5-2.2,0.7-3.6,0.7h-7.1V1.1
		h6.9c2.1,0,3.6,0.5,4.7,1.4c1.1,1,1.6,2.2,1.6,3.7c0,1.3-0.3,2.3-1,3.1c-0.7,0.8-1.6,1.3-2.6,1.7C146.8,11.2,147.7,11.8,148.5,12.7
		z M138.1,10.1h4.8c1.4,0,2.4-0.3,3.2-1c0.8-0.7,1.1-1.6,1.1-2.7c0-1.1-0.4-2-1.1-2.7c-0.8-0.6-1.8-1-3.3-1h-4.7V10.1z M146.4,18.7
		c0.8-0.7,1.2-1.7,1.2-2.9s-0.4-2.2-1.3-2.9c-0.9-0.7-2-1.1-3.5-1.1h-4.8v8h4.9C144.5,19.8,145.6,19.4,146.4,18.7z"/>
</g>
</svg>
