<?xml version="1.0" encoding="utf-8"?>
<!-- Generator: Adobe Illustrator 27.2.0, SVG Export Plug-In . SVG Version: 6.00 Build 0)  -->
<svg version="1.1" id="Warstwa_1" xmlns="http://www.w3.org/2000/svg" xmlns:xlink="http://www.w3.org/1999/xlink" x="0px" y="0px"
	 viewBox="0 0 80 25" style="enable-background:new 0 0 80 25;" xml:space="preserve">
<style type="text/css">
	.st0{fill:#FFFFFF;}
	.st1{fill:#00FFFF;}
</style>
<g>
	<path class="st0" d="M24.1,0.9v20.6h-5.7V10.1l-3.9,11.4H9.6L5.7,10v11.5H0V0.9h6.9l5.2,13.4l5.1-13.4H24.1z"/>
	<path class="st1" d="M41.5,22.5v1.9H26.6v-1.9H41.5z"/>
	<path class="st0" d="M57.7,2.3c1.6,0.8,2.9,2,3.7,3.5c0.9,1.5,1.3,3.4,1.3,5.5c0,2.1-0.4,3.9-1.3,5.4c-0.9,1.5-2.1,2.7-3.7,3.5
		c-1.6,0.8-3.6,1.2-5.8,1.2h-6V1.1h6C54.1,1.1,56.1,1.5,57.7,2.3z M58.4,17.6c1.5-1.5,2.2-3.6,2.2-6.2c0-2.7-0.7-4.8-2.2-6.3
		c-1.5-1.5-3.7-2.3-6.5-2.3h-4v17h4C54.7,19.8,56.9,19.1,58.4,17.6z"/>
	<path class="st0" d="M78.8,12.7c0.8,1,1.2,2.1,1.2,3.3c0,1-0.3,2-0.8,2.8c-0.5,0.8-1.3,1.5-2.3,2s-2.2,0.7-3.6,0.7h-7.1V1.1h6.9
		c2.1,0,3.6,0.5,4.7,1.4s1.6,2.2,1.6,3.7c0,1.3-0.3,2.3-1,3.1c-0.7,0.8-1.6,1.3-2.6,1.7C77,11.2,78,11.8,78.8,12.7z M68.4,10.1h4.8
		c1.4,0,2.4-0.3,3.2-1c0.7-0.7,1.1-1.6,1.1-2.7c0-1.1-0.4-2-1.1-2.7c-0.8-0.6-1.8-1-3.3-1h-4.7V10.1z M76.7,18.7
		c0.8-0.7,1.2-1.7,1.2-2.9c0-1.2-0.4-2.2-1.3-2.9c-0.9-0.7-2-1.1-3.5-1.1h-4.8v8h4.9C74.7,19.8,75.9,19.4,76.7,18.7z"/>
</g>
</svg>
